SplineFontDB: 3.2
FontName: SingScript.sg_components
FullName: SingScript.sg "components" module
FamilyName: SingScript.sg
Weight: Regular
Copyright: Copyright (c) 2025, 05524F.sg (Singapore)
Version: v2
ItalicAngle: 0
UnderlinePosition: -100
UnderlineWidth: 67
Ascent: 600
Descent: 300
InvalidEm: 0
sfntRevision: 0x00010000
LayerCount: 2
Layer: 0 0 "Back" 1
Layer: 1 0 "Fore" 0
XUID: [1021 768 647112374 32286]
StyleMap: 0x0040
FSType: 0
OS2Version: 4
OS2_WeightWidthSlopeOnly: 0
OS2_UseTypoMetrics: 1
CreationTime: 1740441635
ModificationTime: 1753323651
PfmFamily: 65
TTFWeight: 400
TTFWidth: 5
LineGap: 81
VLineGap: 0
Panose: 3 0 5 3 0 0 0 0 0 0
OS2TypoAscent: 600
OS2TypoAOffset: 0
OS2TypoDescent: -300
OS2TypoDOffset: 0
OS2TypoLinegap: 81
OS2WinAscent: 590
OS2WinAOffset: 0
OS2WinDescent: 233
OS2WinDOffset: 0
HheadAscent: 590
HheadAOffset: 0
HheadDescent: -233
HheadDOffset: 0
OS2SubXSize: 585
OS2SubYSize: 630
OS2SubXOff: 0
OS2SubYOff: 126
OS2SupXSize: 585
OS2SupYSize: 630
OS2SupXOff: 0
OS2SupYOff: 432
OS2StrikeYSize: 44
OS2StrikeYPos: 232
OS2CapHeight: 467
OS2XHeight: 300
OS2Vendor: '5524'
OS2CodePages: 00000001.00000000
OS2UnicodeRanges: 80000003.10000000.00000000.00000000
MarkAttachClasses: 1
DEI: 91125
LangName: 1033 "" "" "" "" "" "Version v2"
Encoding: Custom
UnicodeInterp: none
NameList: AGL For New Fonts
DisplaySize: -48
AntiAlias: 1
FitToEm: 0
WidthSeparation: 50
WinInfo: 0 27 3
BeginPrivate: 6
BlueValues 21 [0 0 300 300 467 467]
OtherBlues 11 [-233 -233]
StdHW 4 [67]
StdVW 4 [67]
StemSnapH 33 [52 59 63 67 73 78 86 93 159 167]
StemSnapV 4 [67]
EndPrivate
Grid
0 -200 m 24
 351 -200 549 -200 900 -200 c 1048
0 -233 m 24
 351 -233 549 -233 900 -233 c 1048
250 211 m 24
 289 211 311 211 350 211 c 1048
250 100 m 24
 289 100 311 100 350 100 c 1048
250 -100 m 24
 289 -100 311 -100 350 -100 c 1048
250 -255 m 24
 289 -255 311 -255 350 -255 c 1048
100 511 m 24
 139 511 161 511 200 511 c 1048
100 400 m 24
 139 400 161 400 200 400 c 1048
100 200 m 24

StartChar: NameMe.0
Encoding: 0 -1 0
Width: 551
Flags: HW
LayerCount: 2
Fore
SplineSet
58.5 116.5 m 2
 40.0107421875 116.5 25 131.510742188 25 150 c 0
 25 168.489257812 40.0107421875 183.5 58.5 183.5 c 2
 492.5 183.5 l 2
 510.989257812 183.5 526 168.489257812 526 150 c 0
 526 131.510742188 510.989257812 116.5 492.5 116.5 c 2
 58.5 116.5 l 2
EndSplineSet
EndChar

StartChar: NameMe.1
Encoding: 1 -1 1
Width: 276
Flags: HW
LayerCount: 2
Fore
SplineSet
217.536132812 305.528320312 m 0
 236.022460938 305.528320312 251.03125 290.51953125 251.03125 272.033203125 c 0
 251.03125 261.204101562 245.881835938 251.568359375 237.8515625 245.407226562 c 0
 113.508789062 150 113.508789062 150 113.508789062 150 c 1
 113.508789062 150 237.8515625 54.5927734375 237.899414062 54.5556640625 c 0
 245.881835938 48.431640625 251.03125 38.7958984375 251.03125 27.966796875 c 0
 251.03125 9.48046875 236.022460938 -5.5283203125 217.536132812 -5.5283203125 c 0
 209.877929688 -5.5283203125 202.8125 -2.9599609375 197.119140625 1.4072265625 c 0
 38.1171875 123.385742188 38.1171875 123.385742188 38.1171875 123.385742188 c 2
 34.5224609375 126.143554688 25 134.875 25 149.965820312 c 0
 25 160.04296875 29.515625 169.991210938 38.119140625 176.592773438 c 2
 197.119140625 298.592773438 l 2
 202.817382812 302.953125 209.877929688 305.528320312 217.536132812 305.528320312 c 0
EndSplineSet
EndChar

StartChar: NameMe.2
Encoding: 2 -1 2
Width: 276
Flags: HW
LayerCount: 2
Fore
SplineSet
58.4951171875 305.528320312 m 4
 40.0087890625 305.528320312 25 290.51953125 25 272.033203125 c 4
 25 261.204101562 30.1494140625 251.568359375 38.1796875 245.407226562 c 4
 162.522460938 150 162.522460938 150 162.522460938 150 c 5
 162.522460938 150 38.1796875 54.5927734375 38.1318359375 54.5556640625 c 4
 30.1494140625 48.431640625 25 38.7958984375 25 27.966796875 c 4
 25 9.48046875 40.0087890625 -5.5283203125 58.4951171875 -5.5283203125 c 4
 66.1533203125 -5.5283203125 73.21875 -2.9599609375 78.912109375 1.4072265625 c 4
 237.9140625 123.385742188 237.9140625 123.385742188 237.9140625 123.385742188 c 6
 241.508789062 126.143554688 251.03125 134.875 251.03125 149.965820312 c 4
 251.03125 160.04296875 246.515625 169.991210938 237.912109375 176.592773438 c 6
 78.912109375 298.592773438 l 6
 73.2138671875 302.953125 66.1533203125 305.528320312 58.4951171875 305.528320312 c 4
EndSplineSet
EndChar

StartChar: NameMe.3
Encoding: 3 -1 3
Width: 361
Flags: HW
LayerCount: 2
Fore
SplineSet
25 207.463867188 m 4
 25 188.977539062 40.0087890625 173.96875 58.4951171875 173.96875 c 4
 69.32421875 173.96875 78.9599609375 179.118164062 85.12109375 187.1484375 c 4
 180.528320312 311.491210938 180.528320312 311.491210938 180.528320312 311.491210938 c 5
 180.528320312 311.491210938 275.935546875 187.1484375 275.97265625 187.100585938 c 4
 282.096679688 179.118164062 291.732421875 173.96875 302.561523438 173.96875 c 4
 321.047851562 173.96875 336.056640625 188.977539062 336.056640625 207.463867188 c 4
 336.056640625 215.122070312 333.48828125 222.1875 329.12109375 227.880859375 c 4
 207.142578125 386.8828125 207.142578125 386.8828125 207.142578125 386.8828125 c 6
 204.384765625 390.477539062 195.653320312 400 180.5625 400 c 4
 170.485351562 400 160.537109375 395.484375 153.935546875 386.880859375 c 6
 31.935546875 227.880859375 l 6
 27.5751953125 222.182617188 25 215.122070312 25 207.463867188 c 4
EndSplineSet
EndChar

StartChar: NameMe.4
Encoding: 4 -1 4
Width: 361
Flags: HW
LayerCount: 2
Fore
SplineSet
25 92.5361328125 m 4
 25 111.022460938 40.0087890625 126.03125 58.4951171875 126.03125 c 4
 69.32421875 126.03125 78.9599609375 120.881835938 85.12109375 112.8515625 c 4
 180.528320312 -11.4912109375 180.528320312 -11.4912109375 180.528320312 -11.4912109375 c 5
 180.528320312 -11.4912109375 275.935546875 112.8515625 275.97265625 112.899414062 c 4
 282.096679688 120.881835938 291.732421875 126.03125 302.561523438 126.03125 c 4
 321.047851562 126.03125 336.056640625 111.022460938 336.056640625 92.5361328125 c 4
 336.056640625 84.8779296875 333.48828125 77.8125 329.12109375 72.119140625 c 4
 207.142578125 -86.8828125 207.142578125 -86.8828125 207.142578125 -86.8828125 c 6
 204.384765625 -90.4775390625 195.653320312 -100 180.5625 -100 c 4
 170.485351562 -100 160.537109375 -95.484375 153.935546875 -86.880859375 c 6
 31.935546875 72.119140625 l 6
 27.5751953125 77.8173828125 25 84.8779296875 25 92.5361328125 c 4
EndSplineSet
EndChar

StartChar: NameMe.5
Encoding: 5 -1 5
Width: 117
Flags: HW
LayerCount: 2
Fore
SplineSet
25 367 m 2
 25 385.489257812 40.0107421875 400.5 58.5 400.5 c 0
 76.9892578125 400.5 92 385.489257812 92 367 c 2
 92 -67 l 2
 92 -85.4892578125 76.9892578125 -100.5 58.5 -100.5 c 0
 40.0107421875 -100.5 25 -85.4892578125 25 -67 c 2
 25 367 l 2
EndSplineSet
EndChar

StartChar: NameMe.6
Encoding: 6 -1 6
Width: 423
Flags: HW
LayerCount: 2
Fore
SplineSet
58.4931640625 -36.4892578125 m 0
 40.0078125 -36.4892578125 25 -21.48046875 25 -2.9951171875 c 0
 25 6.2470703125 28.751953125 14.62109375 34.814453125 20.68359375 c 2
 340.814453125 326.68359375 l 2
 346.876953125 332.74609375 355.250976562 336.498046875 364.493164062 336.498046875 c 0
 382.978515625 336.498046875 397.987304688 321.490234375 397.987304688 303.004882812 c 0
 397.987304688 293.76171875 394.235351562 285.388671875 388.181640625 279.31640625 c 2
 82.181640625 -26.68359375 l 2
 76.109375 -32.736328125 67.736328125 -36.4892578125 58.4931640625 -36.4892578125 c 0
EndSplineSet
EndChar

StartChar: NameMe.7
Encoding: 7 -1 7
Width: 423
Flags: HW
LayerCount: 2
Fore
SplineSet
58.4931640625 336.987304688 m 4
 40.0078125 336.987304688 25 321.978515625 25 303.493164062 c 4
 25 294.250976562 28.751953125 285.876953125 34.814453125 279.814453125 c 6
 340.814453125 -26.185546875 l 6
 346.876953125 -32.248046875 355.250976562 -36 364.493164062 -36 c 4
 382.978515625 -36 397.987304688 -20.9921875 397.987304688 -2.5068359375 c 4
 397.987304688 6.736328125 394.235351562 15.109375 388.181640625 21.181640625 c 6
 82.181640625 327.181640625 l 6
 76.109375 333.234375 67.736328125 336.987304688 58.4931640625 336.987304688 c 4
EndSplineSet
EndChar

StartChar: NameMe.8
Encoding: 8 -1 8
Width: 316
Flags: HW
LayerCount: 2
Fore
SplineSet
60.986328125 210.143554688 m 4
 67.5224609375 216.679199219 76.0969238281 219.947021484 84.6713867188 219.947021484 c 0
 93.2458496094 219.947021484 101.8203125 216.679199219 108.356445312 210.143554688 c 4
 114.887660986 203.611506057 118.155692795 195.045384836 118.155692795 186.440120073 c 0
 118.155692795 184.20934159 118.155692795 184.20934159 97.4033203125 26.609375 c 5
 97.4033203125 26.609375 252.790039062 47.0703125 252.850585938 47.078125 c 4
 254.31105291 47.2704422193 255.781799412 47.366600829 257.252544081 47.366600829 c 0
 265.826602781 47.366600829 274.400599205 44.0985672193 280.9375 37.5625 c 4
 287.473144531 31.0263671875 290.740966797 22.4519042969 290.740966797 13.8774414062 c 0
 290.740966797 5.30297851562 287.473144531 -3.271484375 280.9375 -9.8076171875 c 4
 275.521484375 -15.22265625 268.709960938 -18.40234375 261.595703125 -19.33984375 c 4
 62.9130859375 -45.51953125 62.9130859375 -45.51953125 62.9130859375 -45.51953125 c 6
 61.8932443871 -45.653884289 60.4396864906 -45.786576351 58.6770443265 -45.786576351 c 0
 52.6756185397 -45.786576351 43.0911047834 -44.2483313459 34.8427734375 -36 c 4
 27.716796875 -28.8740234375 23.875 -18.646484375 25.291015625 -7.8955078125 c 6
 51.4541015625 190.801757812 l 6
 52.400390625 197.9140625 55.5712890625 204.727539062 60.986328125 210.143554688 c 4
EndSplineSet
EndChar

StartChar: NameMe.9
Encoding: 9 -1 9
Width: 316
Flags: HW
LayerCount: 2
Fore
SplineSet
34.8037109375 -9.8564453125 m 4
 28.2680664062 -3.3203125 25.0002441406 5.25415039062 25.0002441406 13.8286132812 c 0
 25.0002441406 22.4030761719 28.2680664062 30.9775390625 34.8037109375 37.513671875 c 4
 41.3357595684 44.0448875489 49.9018807891 47.312919358 58.5071455517 47.312919358 c 0
 59.9907318097 47.312919358 61.4754815433 47.2157826446 62.951171875 47.021484375 c 4
 218.337890625 26.560546875 218.337890625 26.560546875 218.337890625 26.560546875 c 5
 218.337890625 26.560546875 197.876953125 181.947265625 197.869140625 182.0078125 c 4
 196.555664062 191.982421875 199.727539062 202.436523438 207.384765625 210.094726562 c 4
 213.920898438 216.630371094 222.495361328 219.898193359 231.069824219 219.898193359 c 0
 239.644287109 219.898193359 248.21875 216.630371094 254.754882812 210.094726562 c 4
 260.169921875 204.678710938 263.349609375 197.8671875 264.287109375 190.752929688 c 4
 290.466796875 -7.9296875 290.466796875 -7.9296875 290.466796875 -7.9296875 c 6
 291.05859375 -12.421875 291.618164062 -25.3291015625 280.947265625 -36 c 4
 274.806421469 -42.140844156 266.362291091 -45.8427866862 257.264764639 -45.8427866862 c 0
 255.805312502 -45.8427866862 254.329044873 -45.7475152456 252.842773438 -45.5517578125 c 6
 54.1455078125 -19.388671875 l 6
 47.033203125 -18.4423828125 40.2197265625 -15.271484375 34.8037109375 -9.8564453125 c 4
EndSplineSet
EndChar

StartChar: NameMe.10
Encoding: 10 -1 10
Width: 316
Flags: HW
LayerCount: 2
Fore
SplineSet
254.754882812 89.8564453125 m 4
 248.21875 83.3208007812 239.644287109 80.0529785156 231.069824219 80.0529785156 c 0
 222.495361328 80.0529785156 213.920898438 83.3208007812 207.384765625 89.8564453125 c 4
 200.853549951 96.3884939434 197.585518142 104.954615164 197.585518142 113.559879927 c 0
 197.585518142 115.79065841 197.585518142 115.79065841 218.337890625 273.390625 c 5
 218.337890625 273.390625 62.951171875 252.9296875 62.890625 252.921875 c 4
 61.4301580275 252.729557781 59.9594115259 252.633399171 58.4886668566 252.633399171 c 0
 49.9146081567 252.633399171 41.3406117325 255.901432781 34.8037109375 262.4375 c 4
 28.2680664062 268.973632812 25.0002441406 277.548095703 25.0002441406 286.122558594 c 0
 25.0002441406 294.697021484 28.2680664062 303.271484375 34.8037109375 309.807617188 c 4
 40.2197265625 315.22265625 47.03125 318.40234375 54.1455078125 319.33984375 c 4
 252.828125 345.51953125 252.828125 345.51953125 252.828125 345.51953125 c 6
 253.84796655 345.653884289 255.301524447 345.786576351 257.064166611 345.786576351 c 0
 263.065592398 345.786576351 272.650106154 344.248331346 280.8984375 336 c 4
 288.024414062 328.874023438 291.866210938 318.646484375 290.450195312 307.895507812 c 6
 264.287109375 109.198242188 l 6
 263.340820312 102.0859375 260.169921875 95.2724609375 254.754882812 89.8564453125 c 4
EndSplineSet
EndChar

StartChar: NameMe.11
Encoding: 11 -1 11
Width: 316
Flags: HW
LayerCount: 2
Fore
SplineSet
280.9296875 309.856445312 m 4
 287.465332031 303.3203125 290.733154297 294.745849609 290.733154297 286.171386719 c 0
 290.733154297 277.596923828 287.465332031 269.022460938 280.9296875 262.486328125 c 4
 274.397638869 255.955112451 265.831517648 252.687080642 257.226252886 252.687080642 c 0
 255.742666628 252.687080642 254.257916894 252.784217355 252.782226562 252.978515625 c 4
 97.3955078125 273.439453125 97.3955078125 273.439453125 97.3955078125 273.439453125 c 5
 97.3955078125 273.439453125 117.856445312 118.052734375 117.864257812 117.9921875 c 4
 119.177734375 108.017578125 116.005859375 97.5634765625 108.348632812 89.9052734375 c 4
 101.8125 83.3696289062 93.2380371094 80.1018066406 84.6635742188 80.1018066406 c 0
 76.0891113281 80.1018066406 67.5146484375 83.3696289062 60.978515625 89.9052734375 c 4
 55.5634765625 95.3212890625 52.3837890625 102.1328125 51.4462890625 109.247070312 c 4
 25.2666015625 307.9296875 25.2666015625 307.9296875 25.2666015625 307.9296875 c 6
 24.6748046875 312.421875 24.115234375 325.329101562 34.7861328125 336 c 4
 40.9269769685 342.140844156 49.3711073462 345.842786686 58.4686337984 345.842786686 c 0
 59.9280859355 345.842786686 61.4043535647 345.747515246 62.890625 345.551757812 c 6
 261.587890625 319.388671875 l 6
 268.700195312 318.442382812 275.513671875 315.271484375 280.9296875 309.856445312 c 4
EndSplineSet
EndChar

StartChar: NameMe.12
Encoding: 12 -1 12
Width: 267
Flags: HW
LayerCount: 2
Fore
SplineSet
58.5029296875 -33.50390625 m 0
 40.01171875 -33.50390625 25 -18.4921875 25 -0.0009765625 c 0
 25 5.41015625 26.2861328125 10.5244140625 28.568359375 15.05078125 c 0
 29.916015625 17.72265625 177.092773438 312.124023438 178.602539062 315.119140625 c 0
 184.120117188 326.059570312 195.458007812 333.569335938 208.537109375 333.569335938 c 0
 227.028320312 333.569335938 242.040039062 318.557617188 242.040039062 300.067382812 c 0
 242.040039062 294.655273438 240.75390625 289.541015625 238.431640625 284.94921875 c 0
 237.077148438 282.262695312 89.908203125 -12.1240234375 88.3974609375 -15.119140625 c 0
 82.919921875 -25.9931640625 71.58203125 -33.50390625 58.5029296875 -33.50390625 c 0
EndSplineSet
EndChar

StartChar: NameMe.13
Encoding: 13 -1 13
Width: 350
Flags: HW
LayerCount: 2
Fore
SplineSet
58.5 -33.5 m 2
 40.0107421875 -33.5 25 -18.4892578125 25 0 c 0
 25 18.4892578125 40.0107421875 33.5 58.5 33.5 c 2
 291.5 33.5 l 2
 309.989257812 33.5 325 18.4892578125 325 0 c 0
 325 -18.4892578125 309.989257812 -33.5 291.5 -33.5 c 2
 58.5 -33.5 l 2
EndSplineSet
EndChar

StartChar: NameMe.14
Encoding: 14 -1 14
Width: 117
Flags: HW
LayerCount: 2
Fore
SplineSet
92 33.5 m 6
 92 15.0107421875 76.9892578125 0 58.5 0 c 4
 40.0107421875 0 25 15.0107421875 25 33.5 c 6
 25 266.5 l 6
 25 284.989257812 40.0107421875 300 58.5 300 c 4
 76.9892578125 300 92 284.989257812 92 266.5 c 6
 92 33.5 l 6
EndSplineSet
EndChar

StartChar: NameMe.15
Encoding: 15 -1 15
Width: 550
Flags: HW
LayerCount: 2
Fore
SplineSet
25 367 m 2
 25 385.33984375 39.888671875 400.477539062 58.5234375 400.477539062 c 2
 491.5 400.5 l 2
 509.989257812 400.5 525 385.489257812 525 367 c 0
 525 348.510742188 509.989257812 333.5 491.5 333.5 c 2
 92 333.5 l 1
 92 -67 l 2
 92 -85.4892578125 76.9892578125 -100.5 58.5 -100.5 c 0
 40.0107421875 -100.5 25 -85.4892578125 25 -67 c 2
 25 367 l 2
EndSplineSet
EndChar

StartChar: NameMe.16
Encoding: 16 -1 16
Width: 551
Flags: HW
LayerCount: 2
Fore
SplineSet
58.5 -100 m 6
 40.16015625 -100 25.0224609375 -85.111328125 25.0224609375 -66.4765625 c 6
 25 366.5 l 6
 25 384.989257812 40.0107421875 400 58.5 400 c 4
 76.9892578125 400 92 384.989257812 92 366.5 c 6
 92 -33 l 5
 492.5 -33 l 6
 510.989257812 -33 526 -48.0107421875 526 -66.5 c 4
 526 -84.9892578125 510.989257812 -100 492.5 -100 c 6
 58.5 -100 l 6
EndSplineSet
EndChar

StartChar: NameMe.17
Encoding: 17 -1 17
Width: 550
Flags: HW
LayerCount: 2
Fore
SplineSet
525 -67 m 6
 525 -85.33984375 510.111328125 -100.477539062 491.4765625 -100.477539062 c 6
 58.5 -100.5 l 6
 40.0107421875 -100.5 25 -85.4892578125 25 -67 c 4
 25 -48.5107421875 40.0107421875 -33.5 58.5 -33.5 c 6
 458 -33.5 l 5
 458 367 l 6
 458 385.489257812 473.010742188 400.5 491.5 400.5 c 4
 509.989257812 400.5 525 385.489257812 525 367 c 6
 525 -67 l 6
EndSplineSet
EndChar

StartChar: NameMe.18
Encoding: 18 -1 18
Width: 551
Flags: HW
LayerCount: 2
Fore
SplineSet
492.5 400 m 6
 510.83984375 400 525.977539062 385.111328125 525.977539062 366.4765625 c 6
 526 -66.5 l 6
 526 -84.9892578125 510.989257812 -100 492.5 -100 c 4
 474.010742188 -100 459 -84.9892578125 459 -66.5 c 6
 459 333 l 5
 58.5 333 l 6
 40.0107421875 333 25 348.010742188 25 366.5 c 4
 25 384.989257812 40.0107421875 400 58.5 400 c 6
 492.5 400 l 6
EndSplineSet
EndChar

StartChar: NameMe.19
Encoding: 19 -1 19
Width: 550
Flags: HW
LayerCount: 2
Fore
SplineSet
92 42 m 0
 92 23.5107421875 76.9892578125 8.5 58.5 8.5 c 0
 40.0107421875 8.5 25 23.5107421875 25 42 c 0
 25 181.638671875 137.3828125 291.5 275.5 291.5 c 0
 412.736328125 291.5 525 181.568359375 525 42 c 0
 525 23.5107421875 509.989257812 8.5 491.5 8.5 c 0
 473.010742188 8.5 458 23.5107421875 458 42 c 0
 458 144.431640625 376.263671875 224.5 275.5 224.5 c 0
 173.6171875 224.5 92 144.361328125 92 42 c 0
EndSplineSet
EndChar

StartChar: NameMe.20
Encoding: 20 -1 20
Width: 550
Flags: HW
LayerCount: 2
Fore
SplineSet
128.572265625 336.541992188 m 0
 147.061523438 336.541992188 162.073242188 321.53125 162.073242188 303.041015625 c 0
 162.073242188 290.502929688 155.169921875 279.564453125 144.887695312 273.78125 c 0
 144.557617188 273.215820312 124.310546875 253.546875 108.579101562 219.24609375 c 0
 98.8603515625 198.057617188 92 173.661132812 92 150 c 0
 92 47.4912109375 173.826171875 -33.5 275.5 -33.5 c 0
 376.053710938 -33.5 458 47.4208984375 458 150 c 0
 458 183.19921875 452.354492188 207.2109375 445.200195312 225.311523438 c 0
 436.21875 248.032226562 424.963867188 261.671875 415.102539062 273.6484375 c 0
 406.00390625 284.69921875 401.000976562 290.776367188 401.000976562 302.997070312 c 0
 401.000976562 321.484375 416.009765625 336.493164062 434.497070312 336.493164062 c 0
 445.458007812 336.493164062 455.197265625 331.216796875 461.31640625 323.072265625 c 0
 462.427734375 321.588867188 464.3828125 319.1875 466.84765625 316.192382812 c 0
 487.28125 291.375976562 525 244.431640625 525 150 c 0
 525 10.5791015625 412.946289062 -100.5 275.5 -100.5 c 0
 137.173828125 -100.5 25 10.5087890625 25 150 c 0
 25 201.079101562 44.443359375 245.967773438 64.1708984375 278.033203125 c 0
 71.802734375 290.4375 91.9208984375 320.861328125 112.112304688 332.21875 c 0
 117.029296875 334.987304688 122.620117188 336.541992188 128.572265625 336.541992188 c 0
EndSplineSet
EndChar

StartChar: NameMe.21
Encoding: 21 -1 21
Width: 276
Flags: HW
LayerCount: 2
Fore
SplineSet
78.8896484375 62.546875 m 6
 72.8129410831 57.8840610084 65.6417266067 55.6282912356 58.525454756 55.6282912356 c 0
 48.4633113041 55.6282912356 38.5110141334 60.1382307919 31.91796875 68.73046875 c 4
 27.2557027519 74.8065846105 25.000165286 81.9773078218 25.000165286 89.0932253092 c 0
 25.000165286 99.1553962142 29.5101141455 109.107983033 38.1025390625 115.701171875 c 6
 196.772460938 237.453125 l 6
 202.849168292 242.115938992 210.020382768 244.371708764 217.136654619 244.371708764 c 0
 227.198798071 244.371708764 237.151095242 239.861769208 243.744140625 231.26953125 c 4
 248.406406623 225.19341539 250.661944089 218.022692178 250.661944089 210.906774691 c 0
 250.661944089 200.844603786 246.15199523 190.892016967 237.559570312 184.298828125 c 6
 78.8896484375 62.546875 l 6
EndSplineSet
EndChar

StartChar: NameMe.22
Encoding: 22 -1 22
Width: 276
Flags: HW
LayerCount: 2
Fore
SplineSet
38.1025390625 184.298828125 m 2
 29.5101141455 190.892016967 25.000165286 200.844603786 25.000165286 210.906774691 c 0
 25.000165286 218.022692178 27.2557027519 225.19341539 31.91796875 231.26953125 c 0
 38.5110141334 239.861769208 48.4633113041 244.371708764 58.525454756 244.371708764 c 0
 65.6417266067 244.371708764 72.8129410831 242.115938992 78.8896484375 237.453125 c 2
 237.559570312 115.701171875 l 2
 246.15199523 109.107983033 250.661944089 99.1553962142 250.661944089 89.0932253092 c 0
 250.661944089 81.9773078218 248.406406623 74.8065846105 243.744140625 68.73046875 c 0
 237.151095242 60.1382307919 227.198798071 55.6282912356 217.136654619 55.6282912356 c 0
 210.020382768 55.6282912356 202.849168292 57.8840610084 196.772460938 62.546875 c 2
 38.1025390625 184.298828125 l 2
EndSplineSet
EndChar

StartChar: NameMe.23
Encoding: 23 -1 23
Width: 239
Flags: HW
LayerCount: 2
Fore
SplineSet
206.825195312 91.05859375 m 6
 211.488009304 84.9818863956 213.743779077 77.8106719192 213.743779077 70.6944000685 c 0
 213.743779077 60.6322566166 209.233839521 50.6799594459 200.641601562 44.0869140625 c 4
 194.565485702 39.4246480644 187.394762491 37.1691105985 180.278845003 37.1691105985 c 0
 170.216674098 37.1691105985 160.264087279 41.679059458 153.670898438 50.271484375 c 6
 31.9189453125 208.94140625 l 6
 27.2561313209 215.018113604 25.0003615481 222.189328081 25.0003615481 229.305599932 c 0
 25.0003615481 239.367743383 29.5103011044 249.320040554 38.1025390625 255.913085938 c 4
 44.178654923 260.575351936 51.3493781343 262.830889402 58.4652956217 262.830889402 c 0
 68.5274665267 262.830889402 78.4800533456 258.320940542 85.0732421875 249.728515625 c 6
 206.825195312 91.05859375 l 6
EndSplineSet
EndChar

StartChar: NameMe.24
Encoding: 24 -1 24
Width: 239
Flags: HW
LayerCount: 2
Fore
SplineSet
85.0732421875 50.271484375 m 2
 78.4800533456 41.679059458 68.5274665267 37.1691105985 58.4652956217 37.1691105985 c 0
 51.3493781343 37.1691105985 44.178654923 39.4246480644 38.1025390625 44.0869140625 c 0
 29.5103011044 50.6799594459 25.0003615481 60.6322566166 25.0003615481 70.6944000685 c 0
 25.0003615481 77.8106719192 27.2561313209 84.9818863956 31.9189453125 91.05859375 c 2
 153.670898438 249.728515625 l 2
 160.264087279 258.320940542 170.216674098 262.830889402 180.278845003 262.830889402 c 0
 187.394762491 262.830889402 194.565485702 260.575351936 200.641601562 255.913085938 c 0
 209.233839521 249.320040554 213.743779077 239.367743383 213.743779077 229.305599932 c 0
 213.743779077 222.189328081 211.488009304 215.018113604 206.825195312 208.94140625 c 2
 85.0732421875 50.271484375 l 2
EndSplineSet
EndChar

StartChar: NameMe.25
Encoding: 25 -1 25
Width: 551
Flags: HW
LayerCount: 2
Fore
SplineSet
58.5 241.5 m 2
 40.0107421875 241.5 25 256.510742188 25 275 c 0
 25 293.489257812 40.0107421875 308.5 58.5 308.5 c 2
 492.5 308.5 l 2
 510.989257812 308.5 526 293.489257812 526 275 c 0
 526 256.510742188 510.989257812 241.5 492.5 241.5 c 2
 58.5 241.5 l 2
58.5 -8.5 m 2
 40.0107421875 -8.5 25 6.5107421875 25 25 c 0
 25 43.4892578125 40.0107421875 58.5 58.5 58.5 c 2
 492.5 58.5 l 2
 510.989257812 58.5 526 43.4892578125 526 25 c 0
 526 6.5107421875 510.989257812 -8.5 492.5 -8.5 c 2
 58.5 -8.5 l 2
EndSplineSet
EndChar

StartChar: NameMe.26
Encoding: 26 -1 26
Width: 367
Flags: HW
LayerCount: 2
Fore
SplineSet
92 -67 m 2
 92 -85.4892578125 76.9892578125 -100.5 58.5 -100.5 c 0
 40.0107421875 -100.5 25 -85.4892578125 25 -67 c 2
 25 367 l 2
 25 385.489257812 40.0107421875 400.5 58.5 400.5 c 0
 76.9892578125 400.5 92 385.489257812 92 367 c 2
 92 -67 l 2
342 -67 m 2
 342 -85.4892578125 326.989257812 -100.5 308.5 -100.5 c 0
 290.010742188 -100.5 275 -85.4892578125 275 -67 c 2
 275 367 l 2
 275 385.489257812 290.010742188 400.5 308.5 400.5 c 0
 326.989257812 400.5 342 385.489257812 342 367 c 2
 342 -67 l 2
EndSplineSet
EndChar

StartChar: NameMe.27
Encoding: 27 -1 27
Width: 601
Flags: HW
LayerCount: 2
Fore
SplineSet
82.181640625 61.2578125 m 2
 75.64453125 54.7211914062 67.0690917969 51.4528808594 58.4936523438 51.4528808594 c 0
 49.9182128906 51.4528808594 41.3427734375 54.7211914062 34.8056640625 61.2578125 c 0
 28.2685546875 67.794921875 25 76.3706054688 25 84.9461669922 c 0
 25 93.5217285156 28.2685546875 102.097167969 34.8056640625 108.633789062 c 2
 341.690429688 415.518554688 l 2
 348.227050781 422.055664062 356.802490234 425.32421875 365.378051758 425.32421875 c 0
 373.953613281 425.32421875 382.529296875 422.055664062 389.06640625 415.518554688 c 0
 395.603027344 408.981445312 398.871337891 400.406005859 398.871337891 391.830566406 c 0
 398.871337891 383.255126953 395.603027344 374.6796875 389.06640625 368.142578125 c 2
 82.181640625 61.2578125 l 2
258.958007812 -115.518554688 m 2
 252.421386719 -122.055664062 243.845947266 -125.32421875 235.270385742 -125.32421875 c 0
 226.694824219 -125.32421875 218.119140625 -122.055664062 211.58203125 -115.518554688 c 0
 205.045410156 -108.981445312 201.777099609 -100.406005859 201.777099609 -91.8305664062 c 0
 201.777099609 -83.2551269531 205.045410156 -74.6796875 211.58203125 -68.142578125 c 2
 518.466796875 238.7421875 l 2
 525.00390625 245.278808594 533.579345703 248.547119141 542.154785156 248.547119141 c 0
 550.730224609 248.547119141 559.305664062 245.278808594 565.842773438 238.7421875 c 0
 572.379882812 232.205078125 575.6484375 223.629394531 575.6484375 215.053833008 c 0
 575.6484375 206.478271484 572.379882812 197.902832031 565.842773438 191.366210938 c 2
 258.958007812 -115.518554688 l 2
EndSplineSet
EndChar

StartChar: NameMe.28
Encoding: 28 -1 28
Width: 601
Flags: HW
LayerCount: 2
Fore
SplineSet
211.58203125 368.142578125 m 2
 205.045410156 374.6796875 201.777099609 383.255126953 201.777099609 391.830566406 c 0
 201.777099609 400.406005859 205.045410156 408.981445312 211.58203125 415.518554688 c 0
 218.119140625 422.055664062 226.694824219 425.32421875 235.270385742 425.32421875 c 0
 243.845947266 425.32421875 252.421386719 422.055664062 258.958007812 415.518554688 c 2
 565.842773438 108.633789062 l 2
 572.379882812 102.097167969 575.6484375 93.5217285156 575.6484375 84.9461669922 c 0
 575.6484375 76.3706054688 572.379882812 67.794921875 565.842773438 61.2578125 c 0
 559.305664062 54.7211914062 550.730224609 51.4528808594 542.154785156 51.4528808594 c 0
 533.579345703 51.4528808594 525.00390625 54.7211914062 518.466796875 61.2578125 c 2
 211.58203125 368.142578125 l 2
34.8056640625 191.366210938 m 2
 28.2685546875 197.902832031 25 206.478271484 25 215.053833008 c 0
 25 223.629394531 28.2685546875 232.205078125 34.8056640625 238.7421875 c 0
 41.3427734375 245.278808594 49.9182128906 248.547119141 58.4936523438 248.547119141 c 0
 67.0690917969 248.547119141 75.64453125 245.278808594 82.181640625 238.7421875 c 2
 389.06640625 -68.142578125 l 2
 395.603027344 -74.6796875 398.871337891 -83.2551269531 398.871337891 -91.8305664062 c 0
 398.871337891 -100.406005859 395.603027344 -108.981445312 389.06640625 -115.518554688 c 0
 382.529296875 -122.055664062 373.953613281 -125.32421875 365.378051758 -125.32421875 c 0
 356.802490234 -125.32421875 348.227050781 -122.055664062 341.690429688 -115.518554688 c 2
 34.8056640625 191.366210938 l 2
EndSplineSet
EndChar

StartChar: NameMe.29
Encoding: 29 -1 29
Width: 551
Flags: HW
LayerCount: 2
Fore
SplineSet
58.5 191.5 m 2
 40.0107421875 191.5 25 206.510742188 25 225 c 0
 25 243.489257812 40.0107421875 258.5 58.5 258.5 c 2
 492.5 258.5 l 2
 510.989257812 258.5 526 243.489257812 526 225 c 0
 526 206.510742188 510.989257812 191.5 492.5 191.5 c 2
 58.5 191.5 l 2
58.5 41.5 m 6
 40.0107421875 41.5 25 56.5107421875 25 75 c 4
 25 93.4892578125 40.0107421875 108.5 58.5 108.5 c 6
 492.5 108.5 l 6
 510.989257812 108.5 526 93.4892578125 526 75 c 4
 526 56.5107421875 510.989257812 41.5 492.5 41.5 c 6
 58.5 41.5 l 6
EndSplineSet
EndChar

StartChar: NameMe.30
Encoding: 30 -1 30
Width: 267
Flags: HW
LayerCount: 2
Fore
SplineSet
92 -67 m 2
 92 -85.4892578125 76.9892578125 -100.5 58.5 -100.5 c 0
 40.0107421875 -100.5 25 -85.4892578125 25 -67 c 2
 25 367 l 2
 25 385.489257812 40.0107421875 400.5 58.5 400.5 c 0
 76.9892578125 400.5 92 385.489257812 92 367 c 2
 92 -67 l 2
242 -67 m 6
 242 -85.4892578125 226.989257812 -100.5 208.5 -100.5 c 4
 190.010742188 -100.5 175 -85.4892578125 175 -67 c 6
 175 367 l 6
 175 385.489257812 190.010742188 400.5 208.5 400.5 c 4
 226.989257812 400.5 242 385.489257812 242 367 c 6
 242 -67 l 6
EndSplineSet
EndChar

StartChar: NameMe.31
Encoding: 31 -1 31
Width: 530
Flags: HW
LayerCount: 2
Fore
SplineSet
82.181640625 25.90234375 m 2
 75.64453125 19.3657226562 67.0688476562 16.0974121094 58.4932861328 16.0974121094 c 0
 49.9177246094 16.0974121094 41.3422851562 19.3657226562 34.8056640625 25.90234375 c 0
 28.2685546875 32.439453125 25 41.0151367188 25 49.5908203125 c 0
 25 58.1665039062 28.2685546875 66.7421875 34.8056640625 73.279296875 c 2
 341.689453125 380.163085938 l 2
 348.2265625 386.700195312 356.802246094 389.96875 365.377929688 389.96875 c 0
 373.953613281 389.96875 382.529296875 386.700195312 389.06640625 380.163085938 c 0
 395.603027344 373.626464844 398.871337891 365.051025391 398.871337891 356.475463867 c 0
 398.871337891 347.899902344 395.603027344 339.32421875 389.06640625 332.787109375 c 2
 82.181640625 25.90234375 l 2
188.248046875 -80.1630859375 m 6
 181.7109375 -86.7001953125 173.135253906 -89.96875 164.559570312 -89.96875 c 0
 155.983886719 -89.96875 147.408203125 -86.7001953125 140.87109375 -80.1630859375 c 4
 134.334472656 -73.6264648438 131.066162109 -65.0510253906 131.066162109 -56.4754638672 c 0
 131.066162109 -47.8999023438 134.334472656 -39.32421875 140.87109375 -32.787109375 c 6
 447.755859375 274.09765625 l 6
 454.29296875 280.634277344 462.868652344 283.902587891 471.444213867 283.902587891 c 0
 480.019775391 283.902587891 488.595214844 280.634277344 495.131835938 274.09765625 c 4
 501.668945312 267.560546875 504.9375 258.984863281 504.9375 250.409179688 c 0
 504.9375 241.833496094 501.668945312 233.2578125 495.131835938 226.720703125 c 6
 188.248046875 -80.1630859375 l 6
EndSplineSet
EndChar

StartChar: NameMe.32
Encoding: 32 -1 32
Width: 530
Flags: HW
LayerCount: 2
Fore
SplineSet
140.87109375 332.787109375 m 2
 134.334472656 339.32421875 131.066162109 347.899902344 131.066162109 356.475463867 c 0
 131.066162109 365.051025391 134.334472656 373.626464844 140.87109375 380.163085938 c 0
 147.408203125 386.700195312 155.983886719 389.96875 164.559570312 389.96875 c 0
 173.135253906 389.96875 181.7109375 386.700195312 188.248046875 380.163085938 c 2
 495.131835938 73.279296875 l 2
 501.668945312 66.7421875 504.9375 58.1665039062 504.9375 49.5908203125 c 0
 504.9375 41.0151367188 501.668945312 32.439453125 495.131835938 25.90234375 c 0
 488.595214844 19.3657226562 480.019775391 16.0974121094 471.444213867 16.0974121094 c 0
 462.868652344 16.0974121094 454.29296875 19.3657226562 447.755859375 25.90234375 c 2
 140.87109375 332.787109375 l 2
34.8056640625 226.720703125 m 6
 28.2685546875 233.2578125 25 241.833496094 25 250.409179688 c 0
 25 258.984863281 28.2685546875 267.560546875 34.8056640625 274.09765625 c 4
 41.3422851562 280.634277344 49.9177246094 283.902587891 58.4932861328 283.902587891 c 0
 67.0688476562 283.902587891 75.64453125 280.634277344 82.181640625 274.09765625 c 6
 389.06640625 -32.787109375 l 6
 395.603027344 -39.32421875 398.871337891 -47.8999023438 398.871337891 -56.4754638672 c 0
 398.871337891 -65.0510253906 395.603027344 -73.6264648438 389.06640625 -80.1630859375 c 4
 382.529296875 -86.7001953125 373.953613281 -89.96875 365.377929688 -89.96875 c 0
 356.802246094 -89.96875 348.2265625 -86.7001953125 341.689453125 -80.1630859375 c 6
 34.8056640625 226.720703125 l 6
EndSplineSet
EndChar

StartChar: NameMe.33
Encoding: 33 -1 33
Width: 355
Flags: HW
LayerCount: 2
Fore
SplineSet
296.540039062 366.528320312 m 0
 315.02734375 366.528320312 330.036132812 351.51953125 330.036132812 333.033203125 c 0
 330.036132812 322.216796875 324.897460938 312.590820312 316.883789062 306.428710938 c 0
 113.44140625 150 113.44140625 150 113.44140625 150 c 1
 113.44140625 150 316.883789062 -6.4287109375 316.930664062 -6.46484375 c 0
 324.897460938 -12.5908203125 330.036132812 -22.216796875 330.036132812 -33.033203125 c 0
 330.036132812 -51.51953125 315.02734375 -66.5283203125 296.540039062 -66.5283203125 c 0
 288.870117188 -66.5283203125 281.798828125 -63.9453125 276.096679688 -59.5712890625 c 2
 38.09375 123.400390625 l 2
 34.4765625 126.180664062 25 134.905273438 25 149.96484375 c 0
 25 160.067382812 29.5322265625 169.986328125 38.0966796875 176.571289062 c 2
 276.096679688 359.571289062 l 2
 281.798828125 363.9453125 288.870117188 366.528320312 296.540039062 366.528320312 c 0
EndSplineSet
EndChar

StartChar: NameMe.34
Encoding: 34 -1 34
Width: 483
Flags: HW
LayerCount: 2
Fore
SplineSet
25 269.022460938 m 0
 25 287.508789062 40.0087890625 302.517578125 58.49609375 302.517578125 c 0
 69.3125 302.517578125 78.9384765625 297.379882812 85.1005859375 289.365234375 c 0
 241.529296875 85.9228515625 241.529296875 85.9228515625 241.529296875 85.9228515625 c 1
 241.529296875 85.9228515625 397.95703125 289.365234375 397.994140625 289.413085938 c 0
 404.119140625 297.379882812 413.745117188 302.517578125 424.561523438 302.517578125 c 0
 443.048828125 302.517578125 458.057617188 287.508789062 458.057617188 269.022460938 c 0
 458.057617188 261.352539062 455.473632812 254.28125 451.100585938 248.579101562 c 2
 268.12890625 10.5751953125 l 2
 265.34765625 6.958984375 256.624023438 -2.517578125 241.563476562 -2.517578125 c 0
 231.4609375 -2.517578125 221.541992188 2.0146484375 214.95703125 10.5791015625 c 2
 31.95703125 248.579101562 l 2
 27.583984375 254.28125 25 261.352539062 25 269.022460938 c 0
EndSplineSet
EndChar

StartChar: NameMe.35
Encoding: 35 -1 35
Width: 355
Flags: HW
LayerCount: 2
Fore
SplineSet
58.49609375 -66.5283203125 m 0
 40.0087890625 -66.5283203125 25 -51.51953125 25 -33.033203125 c 0
 25 -22.216796875 30.138671875 -12.5908203125 38.15234375 -6.4287109375 c 0
 241.594726562 150 241.594726562 150 241.594726562 150 c 1
 241.594726562 150 38.15234375 306.428710938 38.10546875 306.46484375 c 0
 30.138671875 312.590820312 25 322.216796875 25 333.033203125 c 0
 25 351.51953125 40.0087890625 366.528320312 58.49609375 366.528320312 c 0
 66.166015625 366.528320312 73.2373046875 363.9453125 78.939453125 359.571289062 c 2
 316.942382812 176.599609375 l 2
 320.559570312 173.819335938 330.036132812 165.094726562 330.036132812 150.03515625 c 0
 330.036132812 139.932617188 325.50390625 130.013671875 316.939453125 123.428710938 c 2
 78.939453125 -59.5712890625 l 2
 73.2373046875 -63.9453125 66.166015625 -66.5283203125 58.49609375 -66.5283203125 c 0
EndSplineSet
EndChar

StartChar: NameMe.36
Encoding: 36 -1 36
Width: 483
Flags: HW
LayerCount: 2
Fore
SplineSet
458.057617188 30.9775390625 m 0
 458.057617188 12.4912109375 443.048828125 -2.517578125 424.561523438 -2.517578125 c 0
 413.745117188 -2.517578125 404.119140625 2.6201171875 397.95703125 10.634765625 c 0
 241.529296875 214.077148438 241.529296875 214.077148438 241.529296875 214.077148438 c 1
 241.529296875 214.077148438 85.1005859375 10.634765625 85.064453125 10.5869140625 c 0
 78.9384765625 2.6201171875 69.3125 -2.517578125 58.49609375 -2.517578125 c 0
 40.0087890625 -2.517578125 25 12.4912109375 25 30.9775390625 c 0
 25 38.6474609375 27.583984375 45.71875 31.95703125 51.4208984375 c 2
 214.928710938 289.424804688 l 2
 217.709960938 293.041015625 226.43359375 302.517578125 241.494140625 302.517578125 c 0
 251.596679688 302.517578125 261.515625 297.985351562 268.100585938 289.420898438 c 2
 451.100585938 51.4208984375 l 2
 455.473632812 45.71875 458.057617188 38.6474609375 458.057617188 30.9775390625 c 0
EndSplineSet
EndChar

StartChar: NameMe.37
Encoding: 37 -1 37
Width: 415
Flags: HW
LayerCount: 2
Fore
SplineSet
73.7138671875 387.26953125 m 0
 80.2506103561 393.806274419 88.8255155876 397.074584964 97.4001386011 397.074584964 c 0
 105.974441349 397.074584964 114.5484619 393.806518559 121.083984375 387.270507812 c 0
 127.615633396 380.738858791 130.883282523 372.171037897 130.883282523 363.565608646 c 0
 130.883282523 361.352000416 130.883282523 361.352000416 97.3525390625 104.69140625 c 1
 97.3525390625 104.69140625 351.8203125 137.934570312 351.87890625 137.942382812 c 0
 353.328374373 138.131734146 354.787904984 138.226411316 356.24744173 138.226411316 c 0
 364.821968778 138.226411316 373.396707553 134.958761197 379.932617188 128.422851562 c 0
 386.468139653 121.886840825 389.735961917 113.312576148 389.735961917 104.738273403 c 0
 389.735961917 96.1636503681 386.467895512 87.5889892624 379.931640625 81.052734375 c 0
 374.5078125 75.62890625 367.681640625 72.455078125 360.556640625 71.5166015625 c 2
 62.8828125 32.603515625 l 2
 61.8631118081 32.4701379822 60.4194913445 32.3397862118 58.6729269228 32.3397862118 c 0
 52.669981421 32.3397862118 43.0883640594 33.8796294732 34.83984375 42.12890625 c 0
 27.6962890625 49.2724609375 23.8876953125 59.490234375 25.287109375 70.203125 c 2
 64.177734375 367.89453125 l 2
 65.1171875 375.01953125 68.291015625 381.846679688 73.7138671875 387.26953125 c 0
EndSplineSet
EndChar

StartChar: NameMe.38
Encoding: 38 -1 38
Width: 415
Flags: HW
LayerCount: 2
Fore
SplineSet
34.8037109375 81.052734375 m 0
 28.268188472 87.5882568405 25.0003662075 96.1622773769 25.0003662075 104.736580113 c 0
 25.0003662075 113.311203138 28.2684326126 121.886108385 34.8046875 128.422851562 c 0
 41.3357287683 134.953892831 49.9018509421 138.22154159 58.5068724423 138.22154159 c 0
 59.979106073 138.22154159 61.4524783572 138.125891603 62.9169921875 137.934570312 c 0
 317.384765625 104.69140625 317.384765625 104.69140625 317.384765625 104.69140625 c 1
 317.384765625 104.69140625 284.139648438 359.157226562 284.1328125 359.217773438 c 0
 282.830078125 369.181640625 286.00390625 379.62109375 293.65234375 387.26953125 c 0
 300.188598628 393.806274419 308.763259719 397.074584964 317.337882742 397.074584964 c 0
 325.912185499 397.074584964 334.486450191 393.806518559 341.022460938 387.270507812 c 0
 346.4453125 381.846679688 349.618164062 375.01953125 350.55859375 367.895507812 c 2
 389.471679688 70.220703125 l 2
 390.0625 65.697265625 390.594726562 52.828125 379.9453125 42.1787109375 c 0
 373.785722668 36.0191211053 365.339757412 32.338313647 356.262705443 32.338313647 c 0
 354.812690041 32.338313647 353.346570236 32.4322424282 351.87109375 32.625 c 2
 54.1787109375 71.5166015625 l 2
 47.0546875 72.4560546875 40.2275390625 75.62890625 34.8037109375 81.052734375 c 0
EndSplineSet
EndChar

StartChar: NameMe.39
Encoding: 39 -1 39
Width: 415
Flags: HW
LayerCount: 2
Fore
SplineSet
341.022460938 -87.26953125 m 0
 334.485717769 -93.8062744186 325.910812537 -97.0745849644 317.336189524 -97.0745849644 c 0
 308.761886776 -97.0745849644 300.187866225 -93.8065185592 293.65234375 -87.2705078125 c 0
 287.120694729 -80.7388587913 283.853045602 -72.1710378966 283.853045602 -63.5656086464 c 0
 283.853045602 -61.3520004159 283.853045602 -61.3520004159 317.383789062 195.30859375 c 1
 317.383789062 195.30859375 62.916015625 162.065429688 62.857421875 162.057617188 c 0
 61.4079537517 161.868265854 59.9484231409 161.773588684 58.4888863955 161.773588684 c 0
 49.9143593474 161.773588684 41.3396205718 165.041238803 34.8037109375 171.577148438 c 0
 28.268188472 178.113159175 25.0003662075 186.687423852 25.0003662075 195.261726597 c 0
 25.0003662075 203.836349632 28.2684326126 212.411010738 34.8046875 218.947265625 c 0
 40.228515625 224.37109375 47.0546875 227.544921875 54.1796875 228.483398438 c 2
 351.853515625 267.396484375 l 2
 352.873216317 267.529862018 354.31683678 267.660213788 356.063401202 267.660213788 c 0
 362.066346704 267.660213788 371.647964066 266.120370527 379.896484375 257.87109375 c 0
 387.040039062 250.727539062 390.848632812 240.509765625 389.44921875 229.796875 c 2
 350.55859375 -67.89453125 l 2
 349.619140625 -75.01953125 346.4453125 -81.8466796875 341.022460938 -87.26953125 c 0
EndSplineSet
EndChar

StartChar: NameMe.40
Encoding: 40 -1 40
Width: 415
Flags: HW
LayerCount: 2
Fore
SplineSet
379.931640625 218.947265625 m 0
 386.46716309 212.41174316 389.734985355 203.837722623 389.734985355 195.263419887 c 0
 389.734985355 186.688796862 386.46691895 178.113891615 379.930664062 171.577148438 c 0
 373.399622794 165.046107169 364.83350062 161.77845841 356.22847912 161.77845841 c 0
 354.75624549 161.77845841 353.282873205 161.874108397 351.818359375 162.065429688 c 0
 97.3515625 195.309570312 97.3515625 195.309570312 97.3515625 195.309570312 c 1
 97.3515625 195.309570312 130.595703125 -59.1572265625 130.603515625 -59.216796875 c 0
 131.905273438 -69.181640625 128.731445312 -79.62109375 121.083007812 -87.26953125 c 0
 114.546752934 -93.8062744186 105.972091843 -97.0745849644 97.3974688208 -97.0745849644 c 0
 88.8231660635 -97.0745849644 80.2489013717 -93.8065185592 73.712890625 -87.2705078125 c 0
 68.2900390625 -81.8466796875 65.1171875 -75.01953125 64.1767578125 -67.8955078125 c 2
 25.263671875 229.779296875 l 2
 24.6728515625 234.302734375 24.140625 247.171875 34.7900390625 257.821289062 c 0
 40.9496288947 263.980878895 49.3955941503 267.661686353 58.4726461192 267.661686353 c 0
 59.9226615213 267.661686353 61.3887813261 267.567757572 62.8642578125 267.375 c 2
 360.556640625 228.483398438 l 2
 367.680664062 227.543945312 374.5078125 224.37109375 379.931640625 218.947265625 c 0
EndSplineSet
EndChar

StartChar: NameMe.41
Encoding: 41 -1 41
Width: 487
Flags: HW
LayerCount: 2
Fore
SplineSet
25 -28.40625 m 0
 25 -9.91796875 40.01171875 5.09375 58.501953125 5.09375 c 0
 71.0390625 5.09375 81.978515625 -1.80859375 87.76171875 -12.091796875 c 0
 88.326171875 -12.421875 107.99609375 -32.66796875 142.296875 -48.400390625 c 0
 163.484375 -58.119140625 187.880859375 -64.978515625 211.54296875 -64.978515625 c 0
 314.05078125 -64.978515625 395.04296875 16.84765625 395.04296875 118.521484375 c 0
 395.04296875 219.07421875 314.12109375 301.021484375 211.54296875 301.021484375 c 0
 178.34375 301.021484375 154.33203125 295.375 136.23046875 288.220703125 c 0
 113.509765625 279.240234375 99.87109375 267.984375 87.89453125 258.123046875 c 0
 76.84375 249.025390625 70.765625 244.021484375 58.544921875 244.021484375 c 0
 40.05859375 244.021484375 25.048828125 259.03125 25.048828125 277.517578125 c 0
 25.048828125 288.478515625 30.326171875 298.21875 38.470703125 304.337890625 c 0
 39.953125 305.44921875 42.35546875 307.404296875 45.349609375 309.869140625 c 0
 70.166015625 330.302734375 117.111328125 368.021484375 211.54296875 368.021484375 c 0
 350.962890625 368.021484375 462.04296875 255.966796875 462.04296875 118.521484375 c 0
 462.04296875 -19.8046875 351.033203125 -131.978515625 211.54296875 -131.978515625 c 0
 160.462890625 -131.978515625 115.57421875 -112.53515625 83.509765625 -92.80859375 c 0
 71.10546875 -85.17578125 40.681640625 -65.05859375 29.32421875 -44.8671875 c 0
 26.5546875 -39.94921875 25 -34.359375 25 -28.40625 c 0
EndSplineSet
EndChar

StartChar: NameMe.42
Encoding: 42 -1 42
Width: 487
Flags: HW
LayerCount: 2
Fore
SplineSet
462.04296875 264.44921875 m 0
 462.04296875 245.958984375 447.03125 230.947265625 428.541015625 230.947265625 c 0
 416.00390625 230.947265625 405.064453125 237.8515625 399.28125 248.1328125 c 0
 398.716796875 248.462890625 379.046875 268.7109375 344.74609375 284.44140625 c 0
 323.55859375 294.16015625 299.162109375 301.021484375 275.5 301.021484375 c 0
 172.9921875 301.021484375 92 219.1953125 92 117.521484375 c 0
 92 16.966796875 172.921875 -64.978515625 275.5 -64.978515625 c 0
 308.69921875 -64.978515625 332.7109375 -59.333984375 350.8125 -52.1796875 c 0
 373.533203125 -43.197265625 387.171875 -31.943359375 399.1484375 -22.08203125 c 0
 410.19921875 -12.982421875 416.27734375 -7.98046875 428.498046875 -7.98046875 c 0
 446.984375 -7.98046875 461.994140625 -22.98828125 461.994140625 -41.4765625 c 0
 461.994140625 -52.4375 456.716796875 -62.17578125 448.572265625 -68.294921875 c 0
 447.08984375 -69.40625 444.6875 -71.361328125 441.693359375 -73.826171875 c 0
 416.876953125 -94.259765625 369.931640625 -131.978515625 275.5 -131.978515625 c 0
 136.080078125 -131.978515625 25 -19.92578125 25 117.521484375 c 0
 25 255.84765625 136.009765625 368.021484375 275.5 368.021484375 c 0
 326.580078125 368.021484375 371.46875 348.578125 403.533203125 328.849609375 c 0
 415.9375 321.21875 446.361328125 301.099609375 457.71875 280.908203125 c 0
 460.48828125 275.9921875 462.04296875 270.400390625 462.04296875 264.44921875 c 0
EndSplineSet
EndChar

StartChar: NameMe.43
Encoding: 43 -1 43
Width: 900
Flags: HW
LayerCount: 2
Fore
SplineSet
58.5 116.5 m 2
 40.0107421875 116.5 25 131.510742188 25 150 c 0
 25 168.489257812 40.0107421875 183.5 58.5 183.5 c 2
 841.5 183.5 l 2
 859.989257812 183.5 875 168.489257812 875 150 c 0
 875 131.510742188 859.989257812 116.5 841.5 116.5 c 2
 58.5 116.5 l 2
EndSplineSet
EndChar

StartChar: NameMe.44
Encoding: 44 -1 44
Width: 900
Flags: HW
LayerCount: 2
Fore
SplineSet
58.5 40.5 m 6
 40.0107421875 40.5 25 55.5107421875 25 74 c 4
 25 92.4892578125 40.0107421875 107.5 58.5 107.5 c 6
 841.5 107.5 l 6
 859.989257812 107.5 875 92.4892578125 875 74 c 4
 875 55.5107421875 859.989257812 40.5 841.5 40.5 c 6
 58.5 40.5 l 6
58.5 191.5 m 2
 40.0107421875 191.5 25 206.510742188 25 225 c 0
 25 243.489257812 40.0107421875 258.5 58.5 258.5 c 2
 841.5 258.5 l 2
 859.989257812 258.5 875 243.489257812 875 225 c 0
 875 206.510742188 859.989257812 191.5 841.5 191.5 c 2
 58.5 191.5 l 2
EndSplineSet
EndChar

StartChar: NameMe.45
Encoding: 45 -1 45
Width: 550
Flags: HW
LayerCount: 2
Fore
SplineSet
458 150.5 m 6
 458 252.931640625 376.263671875 333 275.5 333 c 4
 173.6171875 333 92 252.861328125 92 150.5 c 6
 92 -66.5 l 6
 92 -84.9892578125 76.9892578125 -100 58.5 -100 c 4
 40.0107421875 -100 25 -84.9892578125 25 -66.5 c 6
 25 150.5 l 6
 25 290.138671875 137.3828125 400 275.5 400 c 4
 412.736328125 400 525 290.068359375 525 150.5 c 6
 525 -66.5 l 6
 525 -84.9892578125 509.989257812 -100 491.5 -100 c 4
 473.010742188 -100 458 -84.9892578125 458 -66.5 c 6
 458 150.5 l 6
EndSplineSet
EndChar

StartChar: NameMe.46
Encoding: 46 -1 46
Width: 550
Flags: HW
LayerCount: 2
Fore
SplineSet
275.5 -33 m 6
 377.931640625 -33 458 48.736328125 458 149.5 c 4
 458 251.3828125 377.861328125 333 275.5 333 c 6
 58.5 333 l 6
 40.0107421875 333 25 348.010742188 25 366.5 c 4
 25 384.989257812 40.0107421875 400 58.5 400 c 6
 275.5 400 l 6
 415.138671875 400 525 287.6171875 525 149.5 c 4
 525 12.263671875 415.068359375 -100 275.5 -100 c 6
 58.5 -100 l 6
 40.0107421875 -100 25 -84.9892578125 25 -66.5 c 4
 25 -48.0107421875 40.0107421875 -33 58.5 -33 c 6
 275.5 -33 l 6
EndSplineSet
EndChar

StartChar: NameMe.47
Encoding: 47 -1 47
Width: 550
Flags: HW
LayerCount: 2
Fore
SplineSet
274.5 333 m 6
 172.068359375 333 92 251.263671875 92 150.5 c 4
 92 48.6171875 172.138671875 -33 274.5 -33 c 6
 491.5 -33 l 6
 509.989257812 -33 525 -48.0107421875 525 -66.5 c 4
 525 -84.9892578125 509.989257812 -100 491.5 -100 c 6
 274.5 -100 l 6
 134.861328125 -100 25 12.3828125 25 150.5 c 4
 25 287.736328125 134.931640625 400 274.5 400 c 6
 491.5 400 l 6
 509.989257812 400 525 384.989257812 525 366.5 c 4
 525 348.010742188 509.989257812 333 491.5 333 c 6
 274.5 333 l 6
EndSplineSet
EndChar

StartChar: NameMe.48
Encoding: 48 -1 48
Width: 550
Flags: HW
LayerCount: 2
Fore
SplineSet
92 149.5 m 6
 92 47.068359375 173.736328125 -33 274.5 -33 c 4
 376.3828125 -33 458 47.138671875 458 149.5 c 6
 458 366.5 l 6
 458 384.989257812 473.010742188 400 491.5 400 c 4
 509.989257812 400 525 384.989257812 525 366.5 c 6
 525 149.5 l 6
 525 9.861328125 412.6171875 -100 274.5 -100 c 4
 137.263671875 -100 25 9.931640625 25 149.5 c 6
 25 366.5 l 6
 25 384.989257812 40.0107421875 400 58.5 400 c 4
 76.9892578125 400 92 384.989257812 92 366.5 c 6
 92 149.5 l 6
EndSplineSet
EndChar
